# xmcd CD database file
#
# Track frame offsets:
#	150
#	29715
#	62447
#	107505
#	137827
#	177900
#	209717
#	241855
#	287240
#
# Disc length: 4298 seconds
#
# Revision: 0
# Processed by: cddbd v1.5.2PL0 Copyright (c) Steve Scherf et al.
# Submitted via: CDex 1.70beta2
#
DISCID=8610c809
DTITLE=Don Friedman - Hot Knepper and Pepper
DYEAR=1980
DGENRE=Jazz
TTITLE0=Aubudon
TTITLE1=I'm Gettin' Sentimental Over You
TTITLE2=Hellure
TTITLE3=Groovin' High
TTITLE4=Alfie - Laura - Prelude To A Kiss - I Got It Bad
TTITLE5=Beautiful Love
TTITLE6=I'm Gettin' Sentimental Over You (alternate take 1)
TTITLE7=Beautiful Love (alternate take 1)
TTITLE8=Aubudon (alternate take 3)
EXTD=YEAR: 1980
EXTT0=
EXTT1=
EXTT2=
EXTT3=
EXTT4=
EXTT5=
EXTT6=
EXTT7=
EXTT8=
PLAYORDER=
